<svg version="1.1" id="Layer_1" xmlns="http://www.w3.org/2000/svg" xmlns:xlink="http://www.w3.org/1999/xlink" x="0px" y="0px"
	 width="100%" viewBox="0 0 323 159" enable-background="new 0 0 323 159" xml:space="preserve">
<path fill="#010101" opacity="1.000000" stroke="none" 
	d="
M240.000000,160.000000 
	C160.000015,160.000000 80.500038,160.000000 1.000043,160.000000 
	C1.000028,107.000031 1.000028,54.000065 1.000014,1.000071 
	C108.666603,1.000047 216.333206,1.000047 323.999878,1.000024 
	C323.999908,53.999928 323.999908,106.999855 323.999939,159.999893 
	C296.166656,160.000000 268.333344,160.000000 240.000000,160.000000 
M201.227402,53.970051 
	C201.227402,48.405991 201.227402,42.841934 201.227402,37.426651 
	C193.443726,37.426651 186.398575,37.426651 179.446716,37.426651 
	C179.446716,68.112610 179.446716,98.439651 179.446716,128.738373 
	C186.833572,128.738373 193.909775,128.738373 201.291977,128.738373 
	C201.291977,122.017509 201.291977,115.561096 201.823196,109.140862 
	C202.173737,109.111374 202.524261,109.081879 203.024292,109.808846 
	C204.823410,119.099533 209.072937,126.750755 218.979050,128.732117 
	C224.717682,129.879944 230.889557,129.786163 236.754410,129.175339 
	C247.187515,128.088699 252.851151,121.369804 254.944626,111.430206 
	C255.524475,108.677078 255.694168,105.837578 256.516144,102.760239 
	C256.677917,102.839752 256.839661,102.919266 257.051208,103.935097 
	C257.051208,112.201370 257.051208,120.467644 257.051208,128.689972 
	C264.846283,128.689972 272.067841,128.689972 279.348175,128.689972 
	C279.348175,92.621521 279.348175,56.875195 279.348175,20.824080 
	C271.864899,20.824080 264.627777,20.824080 256.980103,20.824080 
	C256.980103,33.673386 256.980103,46.307247 256.221375,58.712112 
	C254.470032,44.606026 248.159378,38.063145 234.606995,36.302341 
	C218.210236,34.171982 206.442307,41.057175 202.297089,54.807762 
	C201.966766,54.834988 201.636459,54.862213 201.227402,53.970051 
M123.048531,58.808907 
	C122.728188,58.855549 122.407837,58.902191 122.008965,58.115074 
	C121.596466,47.792580 117.024773,40.654003 107.280365,38.179153 
	C101.052940,36.597534 94.176514,36.386181 87.746033,37.053635 
	C76.789757,38.190842 72.258080,43.081779 69.373940,54.082172 
	C69.009048,54.004547 68.644157,53.926922 68.233109,52.935448 
	C68.137032,49.110619 68.249969,45.266876 67.905869,41.464493 
	C66.853165,29.832060 60.645542,22.485819 49.316689,21.594950 
	C38.129719,20.715239 26.819510,21.402786 15.417859,21.402786 
	C15.417859,57.327511 15.417859,93.006371 15.417859,128.889313 
	C26.482691,128.889313 37.282269,129.162735 48.058681,128.781479 
	C54.029297,128.570251 59.542297,126.240753 62.884396,120.881302 
	C64.919037,117.618515 66.249489,113.916595 68.010620,110.168518 
	C69.972595,117.774109 70.501251,126.360680 79.995132,129.119995 
	C88.700989,131.650284 95.401764,129.194855 100.220978,119.458557 
	C100.220978,123.674690 100.220978,126.118454 100.220978,128.926163 
	C107.612450,128.926163 114.730751,128.926163 122.576012,128.953613 
	C123.058800,128.965332 123.541595,128.977066 124.958397,129.004440 
	C131.739441,129.004440 138.520477,129.004440 145.742599,129.004440 
	C145.742599,126.566917 145.737732,124.607986 145.743347,122.649086 
	C145.803024,101.826347 145.817490,81.003265 145.971466,60.181217 
	C145.997116,56.712864 146.889404,52.997578 151.334763,53.256725 
	C155.400711,53.493755 155.723206,57.166126 155.982346,60.396736 
	C156.062027,61.389957 155.996323,62.394882 155.996307,63.394451 
	C155.996017,82.053154 155.995590,100.711853 155.995209,119.370560 
	C155.995148,122.483894 155.995193,125.597237 155.995193,128.804016 
	C163.401245,128.804016 170.323898,128.804016 177.736755,128.804016 
	C177.736755,126.988808 177.736923,125.370224 177.736725,123.751640 
	C177.734192,103.093796 177.756241,82.435890 177.702911,61.778179 
	C177.694778,58.625481 177.535782,55.446400 177.105362,52.326591 
	C175.818115,42.996552 171.659363,38.163006 163.729050,36.449802 
	C156.294785,34.843761 151.458130,37.271534 145.958221,45.682194 
	C145.776947,42.577320 145.621017,39.906666 145.455322,37.068703 
	C141.520416,37.068703 138.031906,37.068707 134.543396,37.068707 
	C130.967514,37.068707 127.391624,37.068703 123.561462,37.068703 
	C123.561462,44.823025 123.561462,51.810577 123.048531,58.808907 
M288.788208,113.500908 
	C289.148773,121.544167 293.787109,126.130981 301.528564,126.099754 
	C308.692261,126.070862 313.859467,121.168259 314.031647,114.236938 
	C314.218323,106.721016 309.755371,101.190498 303.213440,100.830986 
	C294.350311,100.343925 289.531219,104.283844 288.788208,113.500908 
M200.339813,30.953909 
	C200.733414,25.998747 201.126999,21.043585 201.526642,16.012165 
	C193.617203,16.012165 186.570755,16.012165 179.342438,16.012165 
	C179.342438,21.058855 179.342438,25.796856 179.342438,31.000298 
	C186.152756,31.000298 192.756516,31.000298 200.339813,30.953909 
z"/>
<path fill="#FDFDFD" opacity="1.000000" stroke="none" 
	d="
M121.849045,128.926163 
	C114.730751,128.926163 107.612450,128.926163 100.220978,128.926163 
	C100.220978,126.118454 100.220978,123.674690 100.220978,119.458557 
	C95.401764,129.194855 88.700989,131.650284 79.995132,129.119995 
	C70.501251,126.360680 69.972595,117.774109 68.010620,110.168518 
	C66.249489,113.916595 64.919037,117.618515 62.884396,120.881302 
	C59.542297,126.240753 54.029297,128.570251 48.058681,128.781479 
	C37.282269,129.162735 26.482691,128.889313 15.417859,128.889313 
	C15.417859,93.006371 15.417859,57.327511 15.417859,21.402786 
	C26.819510,21.402786 38.129719,20.715239 49.316689,21.594950 
	C60.645542,22.485819 66.853165,29.832060 67.905869,41.464493 
	C68.249969,45.266876 68.137032,49.110619 68.114845,53.843822 
	C68.108368,57.888905 68.220161,61.025616 68.303802,64.619659 
	C68.358109,72.644028 68.440552,80.211052 68.349960,88.098473 
	C68.176918,89.340050 68.176918,90.261223 68.176918,91.182404 
	C68.411392,91.243279 68.645866,91.304153 68.880341,91.365028 
	C69.242996,90.236427 69.605652,89.107826 70.081535,87.652725 
	C75.830452,74.395134 89.307465,74.386887 99.689507,69.480324 
	C99.689507,65.413124 100.202957,61.339012 99.461601,57.507702 
	C99.117813,55.731010 96.331673,54.426914 94.652740,52.908569 
	C93.392258,54.628902 91.696297,56.191975 91.001305,58.116520 
	C90.382324,59.830570 90.871292,61.944717 90.871292,64.082260 
	C83.476181,64.082260 76.680756,64.082260 69.790085,63.628395 
	C69.770332,60.099495 69.845818,57.024467 69.921295,53.949436 
	C72.258080,43.081779 76.789757,38.190842 87.746033,37.053635 
	C94.176514,36.386181 101.052940,36.597534 107.280365,38.179153 
	C117.024773,40.654003 121.596466,47.792580 121.959473,58.996635 
	C122.001854,68.943634 122.093742,78.009079 122.109909,87.532974 
	C121.972466,101.636345 121.910751,115.281250 121.849045,128.926163 
M36.968040,89.499817 
	C36.968040,96.285378 36.968040,103.070930 36.968040,109.828430 
	C44.821499,110.031998 46.590420,108.896233 46.619446,103.226166 
	C46.713249,84.901581 46.744061,66.575325 46.590992,48.251453 
	C46.527603,40.662880 44.681881,39.356937 36.968040,40.617092 
	C36.968040,56.550140 36.968040,72.525009 36.968040,89.499817 
M98.997459,80.832253 
	C96.438438,83.015137 92.038712,84.926132 91.668526,87.432327 
	C90.595352,94.697723 90.946632,102.210068 91.250198,109.604507 
	C91.298012,110.769104 93.945297,112.562759 95.500671,112.686867 
	C96.655525,112.779015 98.247978,110.810593 99.155876,109.436493 
	C99.821838,108.428566 99.886284,106.896530 99.888664,105.597473 
	C99.903534,97.466393 99.825615,89.335144 98.997459,80.832253 
z"/>
<path fill="#FBFBFB" opacity="1.000000" stroke="none" 
	d="
M123.561462,58.798134 
	C123.561462,51.810577 123.561462,44.823025 123.561462,37.068703 
	C127.391624,37.068703 130.967514,37.068707 134.543396,37.068707 
	C138.031906,37.068707 141.520416,37.068703 145.455322,37.068703 
	C145.621017,39.906666 145.776947,42.577320 145.958221,45.682194 
	C151.458130,37.271534 156.294785,34.843761 163.729050,36.449802 
	C171.659363,38.163006 175.818115,42.996552 177.105362,52.326591 
	C177.535782,55.446400 177.694778,58.625481 177.702911,61.778179 
	C177.756241,82.435890 177.734192,103.093796 177.736725,123.751640 
	C177.736923,125.370224 177.736755,126.988808 177.736755,128.804016 
	C170.323898,128.804016 163.401245,128.804016 155.995193,128.804016 
	C155.995193,125.597237 155.995148,122.483894 155.995209,119.370560 
	C155.995590,100.711853 155.996017,82.053154 155.996307,63.394451 
	C155.996323,62.394882 156.062027,61.389957 155.982346,60.396736 
	C155.723206,57.166126 155.400711,53.493755 151.334763,53.256725 
	C146.889404,52.997578 145.997116,56.712864 145.971466,60.181217 
	C145.817490,81.003265 145.803024,101.826347 145.743347,122.649086 
	C145.737732,124.607986 145.742599,126.566917 145.742599,129.004440 
	C138.520477,129.004440 131.739441,129.004440 124.361359,128.544403 
	C123.716339,114.432686 123.668343,100.781006 123.755432,86.669495 
	C123.780823,77.072487 123.671143,67.935310 123.561462,58.798134 
z"/>
<path fill="#FCFCFC" opacity="1.000000" stroke="none" 
	d="
M202.792206,54.916573 
	C206.442307,41.057175 218.210236,34.171982 234.606995,36.302341 
	C248.159378,38.063145 254.470032,44.606026 256.604614,59.298977 
	C256.986816,67.273224 256.985779,74.660606 256.588623,82.181564 
	C256.450623,85.451485 254.276367,85.083214 252.280548,85.078979 
	C243.013885,85.059341 233.747131,85.070282 224.187515,85.070282 
	C224.187515,92.311852 223.978302,99.097649 224.279068,105.860771 
	C224.421478,109.062782 224.702301,113.072159 229.460999,112.933685 
	C234.194656,112.795929 234.092453,108.971008 234.184525,105.631142 
	C234.292847,101.701866 234.209930,97.767311 234.209930,93.987946 
	C241.906616,93.987946 248.960388,93.987946 255.960052,94.437592 
	C255.954636,97.604057 256.003357,100.320877 256.052063,103.037704 
	C255.694168,105.837578 255.524475,108.677078 254.944626,111.430206 
	C252.851151,121.369804 247.187515,128.088699 236.754410,129.175339 
	C230.889557,129.786163 224.717682,129.879944 218.979050,128.732117 
	C209.072937,126.750755 204.823410,119.099533 203.008301,109.005455 
	C202.925613,90.440231 202.858917,72.678406 202.792206,54.916573 
M227.596527,74.081718 
	C229.705719,74.081718 231.814896,74.081718 233.992996,74.081718 
	C233.992996,68.342117 234.377563,63.027225 233.788376,57.822567 
	C233.576721,55.952869 231.019409,54.348709 229.532623,52.623363 
	C227.891769,54.191822 225.116745,55.576023 224.826294,57.363869 
	C224.010239,62.386864 224.150421,67.575981 224.137100,72.700165 
	C224.135910,73.158371 225.757233,73.620804 227.596527,74.081718 
z"/>
<path fill="#F8F8F8" opacity="1.000000" stroke="none" 
	d="
M256.984741,82.047989 
	C256.985779,74.660606 256.986816,67.273224 256.984009,59.413475 
	C256.980103,46.307247 256.980103,33.673386 256.980103,20.824080 
	C264.627777,20.824080 271.864899,20.824080 279.348175,20.824080 
	C279.348175,56.875195 279.348175,92.621521 279.348175,128.689972 
	C272.067841,128.689972 264.846283,128.689972 257.051208,128.689972 
	C257.051208,120.467644 257.051208,112.201370 257.131409,103.024132 
	C257.109619,99.385513 257.007629,96.657860 256.958374,93.477341 
	C257.002289,89.365639 256.993530,85.706818 256.984741,82.047989 
z"/>
<path fill="#FCFCFC" opacity="1.000000" stroke="none" 
	d="
M201.291992,109.104683 
	C201.291977,115.561096 201.291977,122.017509 201.291977,128.738373 
	C193.909775,128.738373 186.833572,128.738373 179.446716,128.738373 
	C179.446716,98.439651 179.446716,68.112610 179.446716,37.426651 
	C186.398575,37.426651 193.443726,37.426651 201.227402,37.426651 
	C201.227402,42.841934 201.227402,48.405991 201.131226,54.888367 
	C201.120697,73.572685 201.206345,91.338684 201.291992,109.104683 
z"/>
<path fill="#FAFAFA" opacity="1.000000" stroke="none" 
	d="
M288.782562,113.067337 
	C289.531219,104.283844 294.350311,100.343925 303.213440,100.830986 
	C309.755371,101.190498 314.218323,106.721016 314.031647,114.236938 
	C313.859467,121.168259 308.692261,126.070862 301.528564,126.099754 
	C293.787109,126.130981 289.148773,121.544167 288.782562,113.067337 
z"/>
<path fill="#FCFCFC" opacity="1.000000" stroke="none" 
	d="
M199.850052,30.977104 
	C192.756516,31.000298 186.152756,31.000298 179.342438,31.000298 
	C179.342438,25.796856 179.342438,21.058855 179.342438,16.012165 
	C186.570755,16.012165 193.617203,16.012165 201.526642,16.012165 
	C201.126999,21.043585 200.733414,25.998747 199.850052,30.977104 
z"/>
<path fill="#202020" opacity="1.000000" stroke="none" 
	d="
M123.620354,87.129326 
	C123.668343,100.781006 123.716339,114.432686 123.894356,128.536591 
	C123.541595,128.977066 123.058800,128.965332 122.212524,128.939880 
	C121.910751,115.281250 121.972466,101.636345 122.349960,87.567505 
	C122.665749,87.143570 123.144402,87.227592 123.144402,87.227592 
	C123.144402,87.227592 123.620354,87.129326 123.620354,87.129326 
z"/>
<path fill="#4A4A4A" opacity="1.000000" stroke="none" 
	d="
M201.557587,109.122772 
	C201.206345,91.338684 201.120697,73.572685 201.170593,55.348061 
	C201.636459,54.862213 201.966766,54.834988 202.544647,54.862167 
	C202.858917,72.678406 202.925613,90.440231 202.933563,108.627228 
	C202.524261,109.081879 202.173737,109.111374 201.557587,109.122772 
z"/>
<path fill="#606060" opacity="1.000000" stroke="none" 
	d="
M123.755432,86.669495 
	C123.620354,87.129326 123.144402,87.227592 123.144402,87.227592 
	C123.144402,87.227592 122.665749,87.143570 122.425690,87.109047 
	C122.093742,78.009079 122.001854,68.943634 121.998734,59.413513 
	C122.407837,58.902191 122.728188,58.855549 123.304993,58.803520 
	C123.671143,67.935310 123.780823,77.072487 123.755432,86.669495 
z"/>
<path fill="#676767" opacity="1.000000" stroke="none" 
	d="
M68.331947,64.162323 
	C68.220161,61.025616 68.108368,57.888905 68.137924,54.300747 
	C68.644157,53.926922 69.009048,54.004547 69.647621,54.015804 
	C69.845818,57.024467 69.770332,60.099495 69.541969,63.754166 
	C69.036713,64.276642 68.684326,64.219482 68.331947,64.162323 
z"/>
<path fill="#747474" opacity="1.000000" stroke="none" 
	d="
M256.905640,93.930206 
	C257.007629,96.657860 257.109619,99.385513 257.106506,102.555969 
	C256.839661,102.919266 256.677917,102.839752 256.284119,102.898972 
	C256.003357,100.320877 255.954636,97.604057 256.183350,94.430061 
	C256.460785,93.972893 256.905640,93.930206 256.905640,93.930206 
z"/>
<path fill="#0A0A0A" opacity="1.000000" stroke="none" 
	d="
M36.968040,88.999847 
	C36.968040,72.525009 36.968040,56.550140 36.968040,40.617092 
	C44.681881,39.356937 46.527603,40.662880 46.590992,48.251453 
	C46.744061,66.575325 46.713249,84.901581 46.619446,103.226166 
	C46.590420,108.896233 44.821499,110.031998 36.968040,109.828430 
	C36.968040,103.070930 36.968040,96.285378 36.968040,88.999847 
z"/>
<path fill="#070707" opacity="1.000000" stroke="none" 
	d="
M68.303802,64.619659 
	C68.684326,64.219482 69.036713,64.276642 69.637207,64.208031 
	C76.680756,64.082260 83.476181,64.082260 90.871292,64.082260 
	C90.871292,61.944717 90.382324,59.830570 91.001305,58.116520 
	C91.696297,56.191975 93.392258,54.628902 94.652740,52.908569 
	C96.331673,54.426914 99.117813,55.731010 99.461601,57.507702 
	C100.202957,61.339012 99.689507,65.413124 99.689507,69.480324 
	C89.307465,74.386887 75.830452,74.395134 69.833450,87.712082 
	C69.155762,87.991318 68.839378,87.884697 68.523003,87.778076 
	C68.440552,80.211052 68.358109,72.644028 68.303802,64.619659 
z"/>
<path fill="#0F0F0F" opacity="1.000000" stroke="none" 
	d="
M99.387939,81.018097 
	C99.825615,89.335144 99.903534,97.466393 99.888664,105.597473 
	C99.886284,106.896530 99.821838,108.428566 99.155876,109.436493 
	C98.247978,110.810593 96.655525,112.779015 95.500671,112.686867 
	C93.945297,112.562759 91.298012,110.769104 91.250198,109.604507 
	C90.946632,102.210068 90.595352,94.697723 91.668526,87.432327 
	C92.038712,84.926132 96.438438,83.015137 99.387939,81.018097 
z"/>
<path fill="#676767" opacity="1.000000" stroke="none" 
	d="
M68.349960,88.098473 
	C68.839378,87.884697 69.155762,87.991318 69.720215,88.038582 
	C69.605652,89.107826 69.242996,90.236427 68.880341,91.365028 
	C68.645866,91.304153 68.411392,91.243279 68.176918,91.182404 
	C68.176918,90.261223 68.176918,89.340050 68.349960,88.098473 
z"/>
<path fill="#050505" opacity="1.000000" stroke="none" 
	d="
M256.958374,93.477341 
	C256.905640,93.930206 256.460785,93.972893 256.237488,93.980423 
	C248.960388,93.987946 241.906616,93.987946 234.209930,93.987946 
	C234.209930,97.767311 234.292847,101.701866 234.184525,105.631142 
	C234.092453,108.971008 234.194656,112.795929 229.460999,112.933685 
	C224.702301,113.072159 224.421478,109.062782 224.279068,105.860771 
	C223.978302,99.097649 224.187515,92.311852 224.187515,85.070282 
	C233.747131,85.070282 243.013885,85.059341 252.280548,85.078979 
	C254.276367,85.083214 256.450623,85.451485 256.588623,82.181564 
	C256.993530,85.706818 257.002289,89.365639 256.958374,93.477341 
z"/>
<path fill="#020202" opacity="1.000000" stroke="none" 
	d="
M227.110779,74.081497 
	C225.757233,73.620804 224.135910,73.158371 224.137100,72.700165 
	C224.150421,67.575981 224.010239,62.386864 224.826294,57.363869 
	C225.116745,55.576023 227.891769,54.191822 229.532623,52.623363 
	C231.019409,54.348709 233.576721,55.952869 233.788376,57.822567 
	C234.377563,63.027225 233.992996,68.342117 233.992996,74.081718 
	C231.814896,74.081718 229.705719,74.081718 227.110779,74.081497 
z"/>
</svg>